<svg width="180" height="180" viewBox="0 0 180 180" fill="none" xmlns="http://www.w3.org/2000/svg">
<g clip-path="url(#clip0_334_738)">
<path d="M70.0322 146.186L122.968 139.686L120.531 119.835C119.637 112.556 116.28 106.644 110.46 102.097C104.641 97.55 98.0915 95.7234 90.8128 96.6171C83.5341 97.5108 77.6214 100.868 73.0745 106.687C68.5276 112.507 66.7011 119.056 67.5948 126.335L70.0322 146.186ZM45.1892 162.67L43.5643 149.436L56.7982 147.811L54.3608 127.96C53.5348 121.233 54.3321 114.725 56.7526 108.436C59.1732 102.148 62.9771 96.8959 68.1643 92.6812C62.1066 89.8428 57.1449 85.6652 53.2794 80.1485C49.4138 74.6318 47.0661 68.5123 46.2362 61.79L43.7988 41.9391L30.5649 43.564L28.9399 30.3301L134.812 17.3307L136.436 30.5646L123.203 32.1896L125.64 52.0405C126.466 58.7677 125.669 65.2756 123.248 71.5642C120.828 77.8527 117.024 83.1043 111.836 87.319C117.894 90.1575 122.858 94.3348 126.728 99.8509C130.598 105.367 132.943 111.487 133.765 118.21L136.202 138.061L149.436 136.436L151.061 149.67L45.1892 162.67Z" fill="#0B51FF"/>
</g>
<defs>
<clipPath id="clip0_334_738">
<rect width="160" height="160" fill="white" transform="translate(0.847168 20.3457) rotate(-7)"/>
</clipPath>
</defs>
</svg>
