<svg width="71" height="70" viewBox="0 0 71 70" fill="none" xmlns="http://www.w3.org/2000/svg">
<path fill-rule="evenodd" clip-rule="evenodd" d="M27.6452 8.74902C24.6186 8.74902 21.716 9.95133 19.5759 12.0915L9.24902 22.4183V27.1452C9.24902 30.4848 10.6835 33.4893 12.97 35.5762C10.6835 37.6631 9.24902 40.6676 9.24902 44.0071V48.7341L19.5759 59.0609C21.716 61.2011 24.6186 62.4033 27.6452 62.4033C30.9848 62.4033 33.9893 60.9689 36.0762 58.6824C38.1631 60.9689 41.1676 62.4033 44.5072 62.4033C47.5338 62.4033 50.4364 61.2011 52.5765 59.0609L62.9033 48.7341V44.0071C62.9033 40.6676 61.4689 37.6631 59.1824 35.5762C61.4689 33.4893 62.9033 30.4848 62.9033 27.1452V22.4183L52.5765 12.0915C50.4364 9.95133 47.5338 8.74902 44.5072 8.74902C41.1676 8.74902 38.1631 10.1835 36.0762 12.47C33.9893 10.1835 30.9848 8.74902 27.6452 8.74902ZM43.8008 35.5762C43.6722 35.4588 43.5459 35.3382 43.4223 35.2145L36.0762 27.8685L28.7301 35.2145C28.6064 35.3382 28.4802 35.4588 28.3516 35.5762C28.4802 35.6935 28.6064 35.8141 28.7301 35.9378L36.0762 43.2839L43.4223 35.9378C43.5459 35.8141 43.6722 35.6935 43.8008 35.5762ZM39.0569 48.7341V50.9916C39.0569 54.0016 41.4971 56.4418 44.5072 56.4418C45.9526 56.4418 47.3389 55.8676 48.361 54.8454L56.9418 46.2646V44.0071C56.9418 40.9971 54.5016 38.5569 51.4916 38.5569C50.0462 38.5569 48.6599 39.1312 47.6378 40.1533L39.0569 48.7341ZM33.0954 48.7341L24.5146 40.1533C23.4925 39.1312 22.1063 38.5569 20.6608 38.5569C17.6507 38.5569 15.2106 40.9971 15.2106 44.0071V46.2646L23.7914 54.8454C24.8135 55.8676 26.1998 56.4418 27.6452 56.4418C30.6552 56.4418 33.0954 54.0016 33.0954 50.9916V48.7341ZM33.0954 20.1608V22.4183L24.5146 30.9991C23.4925 32.0212 22.1063 32.5954 20.6608 32.5954C17.6507 32.5954 15.2106 30.1552 15.2106 27.1452V24.8877L23.7914 16.3069C24.8135 15.2848 26.1998 14.7106 27.6452 14.7106C30.6552 14.7106 33.0954 17.1507 33.0954 20.1608ZM47.6378 30.9991L39.0569 22.4183V20.1608C39.0569 17.1507 41.4971 14.7106 44.5072 14.7106C45.9526 14.7106 47.3389 15.2848 48.361 16.3069L56.9418 24.8877V27.1452C56.9418 30.1552 54.5016 32.5954 51.4916 32.5954C50.0462 32.5954 48.6599 32.0212 47.6378 30.9991Z" fill="#0B51FF"/>
</svg>
